# xmcd
#
# Track frame offsets: 
#        225
#        17065
#        36188
#
# Disc length: 662 seconds
#
# Revision: 1
# Processed by: cddbd v1.5.1PL2 Copyright (c) Steve Scherf et al.
# Submitted via: ExactAudioCopy v0.95b4
#
DISCID=1c029303
DTITLE=George Sanders - ZsaZsaZsa
DYEAR=2006
DGENRE=Cabaret
TTITLE0=Querida Mi Querida
TTITLE1=The Visitors
TTITLE2=It Had Better Be Tonight
EXTD=contact +55 31 96715026 - 35817173
EXTT0=
EXTT1=
EXTT2=
PLAYORDER=
